<?xml version="1.0" encoding="UTF-8" standalone="no" ?>
<!DOCTYPE svg PUBLIC "-//W3C//DTD SVG 1.1//EN" "http://www.w3.org/Graphics/SVG/1.1/DTD/svg11.dtd">
<svg xmlns="http://www.w3.org/2000/svg" xmlns:xlink="http://www.w3.org/1999/xlink" version="1.1" width="1280" height="1024" viewBox="0 0 1280 1024" xml:space="preserve">
<desc>Created with Fabric.js 5.3.0</desc>
<defs>
</defs>
<g transform="matrix(1 0 0 1 640 512)" id="background-logo"  >
<rect style="stroke: none; stroke-width: 0; stroke-dasharray: none; stroke-linecap: butt; stroke-dashoffset: 0; stroke-linejoin: miter; stroke-miterlimit: 4; fill: rgb(255,255,255); fill-opacity: 0; fill-rule: nonzero; opacity: 1;"  paint-order="stroke"  x="-640" y="-512" rx="0" ry="0" width="1280" height="1024" />
</g>
<g transform="matrix(1.9211538461538462 0 0 1.9211538461538462 640 422.00008613638954)" id="logo-logo"  >
<g style=""  paint-order="stroke"   >
		<g transform="matrix(0.5988628349330992 0.22391562045746352 -0.321168741919297 0.73924878514698 -1.8561449392469171 -24.00949647788275)"  >
<g style=""  paint-order="stroke"   >
		<g transform="matrix(1 0 0 1 0 0)"  >
<path style="stroke: none; stroke-width: 1; stroke-dasharray: none; stroke-linecap: butt; stroke-dashoffset: 0; stroke-linejoin: miter; stroke-miterlimit: 4; fill: rgb(40,103,220); fill-rule: nonzero; opacity: 1;"  paint-order="stroke"  transform=" translate(-124.99912260633612, -92.86116509902779)" d="M 10.66 159.85 C 10.67 159.9 10.69 159.94 10.7 159.98999999999998 C 7.879999999999999 154.83999999999997 5.56 149.38 3.799999999999999 143.60999999999999 C -13.04 88.45 27.64 27.14 94.67 6.68 C 126.33 -2.99 158.2 -1.8000000000000007 184.8 7.9399999999999995 C 161.02 3.2699999999999996 134.71 4.379999999999999 108.53000000000002 12.37 C 36.34 34.41 -7.48 100.44 10.66 159.85 z M 24.97 176.67 C 6.76 117.01 51.44 50.32 124.57 27.99 C 169.57999999999998 14.249999999999998 216.55 20.189999999999998 250 42.73 C 217.45 12.23 164.7 2.4 114.45 17.73 C 43.22 39.48 -0.3 104.44 17.44 162.55 C 19.96 170.79000000000002 23.580000000000002 178.54000000000002 28.26 185.72000000000003 C 27.02 182.77 25.92 179.75 24.97 176.67 z" stroke-linecap="round" />
</g>
</g>
</g>
		<g transform="matrix(0.18440009187394832 -0.5839834775978047 0.73929792930564 0.19086283698540793 -10.448887346493166 25.460307760119235)"  >
<g style=""  paint-order="stroke"   >
		<g transform="matrix(1 0 0 1 0 0)"  >
<path style="stroke: none; stroke-width: 1; stroke-dasharray: none; stroke-linecap: butt; stroke-dashoffset: 0; stroke-linejoin: miter; stroke-miterlimit: 4; fill: rgb(58,115,223); fill-rule: nonzero; opacity: 1;"  paint-order="stroke"  transform=" translate(-124.99912260633612, -92.86116509902779)" d="M 10.66 159.85 C 10.67 159.9 10.69 159.94 10.7 159.98999999999998 C 7.879999999999999 154.83999999999997 5.56 149.38 3.799999999999999 143.60999999999999 C -13.04 88.45 27.64 27.14 94.67 6.68 C 126.33 -2.99 158.2 -1.8000000000000007 184.8 7.9399999999999995 C 161.02 3.2699999999999996 134.71 4.379999999999999 108.53000000000002 12.37 C 36.34 34.41 -7.48 100.44 10.66 159.85 z M 24.97 176.67 C 6.76 117.01 51.44 50.32 124.57 27.99 C 169.57999999999998 14.249999999999998 216.55 20.189999999999998 250 42.73 C 217.45 12.23 164.7 2.4 114.45 17.73 C 43.22 39.48 -0.3 104.44 17.44 162.55 C 19.96 170.79000000000002 23.580000000000002 178.54000000000002 28.26 185.72000000000003 C 27.02 182.77 25.92 179.75 24.97 176.67 z" stroke-linecap="round" />
</g>
</g>
</g>
		<g transform="matrix(-0.46114011466242755 -0.044908196942565336 0.08361564159211576 -0.5620611444876217 41.130665869462916 44.27892169130581)"  >
<g style=""  paint-order="stroke"   >
		<g transform="matrix(1 0 0 1 0 0)"  >
<path style="stroke: none; stroke-width: 1; stroke-dasharray: none; stroke-linecap: butt; stroke-dashoffset: 0; stroke-linejoin: miter; stroke-miterlimit: 4; fill: rgb(40,103,220); fill-rule: nonzero; opacity: 1;"  paint-order="stroke"  transform=" translate(-124.99912260633612, -92.86116509902779)" d="M 10.66 159.85 C 10.67 159.9 10.69 159.94 10.7 159.98999999999998 C 7.879999999999999 154.83999999999997 5.56 149.38 3.799999999999999 143.60999999999999 C -13.04 88.45 27.64 27.14 94.67 6.68 C 126.33 -2.99 158.2 -1.8000000000000007 184.8 7.9399999999999995 C 161.02 3.2699999999999996 134.71 4.379999999999999 108.53000000000002 12.37 C 36.34 34.41 -7.48 100.44 10.66 159.85 z M 24.97 176.67 C 6.76 117.01 51.44 50.32 124.57 27.99 C 169.57999999999998 14.249999999999998 216.55 20.189999999999998 250 42.73 C 217.45 12.23 164.7 2.4 114.45 17.73 C 43.22 39.48 -0.3 104.44 17.44 162.55 C 19.96 170.79000000000002 23.580000000000002 178.54000000000002 28.26 185.72000000000003 C 27.02 182.77 25.92 179.75 24.97 176.67 z" stroke-linecap="round" />
</g>
</g>
</g>
</g>
</g>
<g transform="matrix(1.9211538461538462 0 0 1.9211538461538462 638.7032211538461 723.771665596777)" id="text-logo"  >
<g style=""  paint-order="stroke"   >
		<g transform="matrix(1 0 0 1 0 0)" id="text-logo-path-0"  >
<path style="stroke: none; stroke-width: 0; stroke-dasharray: none; stroke-linecap: butt; stroke-dashoffset: 0; stroke-linejoin: miter; stroke-miterlimit: 4; fill: rgb(29,82,180); fill-rule: nonzero; opacity: 1;"  paint-order="stroke"  transform=" translate(-160.7, 17.5)" d="M 20.95 -35 L 12.45 -35 L 0.45 0 L 8.95 0 L 11.4 -7.5 L 22 -7.5 L 24.45 0 L 32.95 0 Z M 19.5 -15 L 13.9 -15 L 16.7 -23.6 Z M 52.6 -25.9 C 52.6 -27.4 54.65 -28.3 56.6 -28.3 C 59.5 -28.3 62.75 -26.15 64.7 -23.8 L 70.45 -28.95 C 66.65 -33.65 62.5 -35.8 57.25 -35.8 C 49.95 -35.8 44.4 -31.6 44.4 -26.15 C 44.4 -15.85 63.75 -14.05 63.75 -9.5 C 63.75 -8 61.85 -6.7 59.2 -6.7 C 55.15 -6.65 50.6 -9.6 48.1 -12.05 L 43.4 -5.85 C 47.4 -1.7 53.05 0.8 58.85 0.8 C 64.15 0.8 71.9 -2.75 71.9 -9.6 C 71.9 -20.35 52.6 -21.55 52.6 -25.9 Z M 93.2 -35 L 85.2 -35 L 85.2 0 L 93.2 0 L 93.2 -9.05 L 95.8 -12.3 L 105.2 0 L 115.2 0 L 100.6 -18.45 L 113.7 -35 L 104.2 -35 L 93.2 -20.25 Z M 169.8 0.8 C 175.65 0.8 180.55 -1.4 183.8 -5.2 L 177.8 -10.4 C 175.95 -8.05 173.15 -6.7 169.8 -6.7 C 163.75 -6.7 159.5 -11.15 159.5 -17.5 C 159.5 -23.85 163.75 -28.3 169.8 -28.3 C 172.7 -28.3 175.2 -27.25 177.05 -25.5 L 182.3 -31.35 C 179.1 -34.2 174.8 -35.8 169.8 -35.8 C 159.05 -35.8 151.5 -28.35 151.5 -17.55 C 151.5 -6.75 159.05 0.8 169.8 0.8 Z M 211.9 0.8 C 222.7 0.8 230.2 -6.8 230.2 -17.55 C 230.2 -28.3 222.65 -35.8 211.9 -35.8 C 201.15 -35.8 193.6 -28.3 193.6 -17.55 C 193.6 -6.75 201.1 0.8 211.9 0.8 Z M 211.9 -6.7 C 205.85 -6.7 201.6 -11.15 201.6 -17.5 C 201.6 -23.85 205.85 -28.3 211.9 -28.3 C 217.95 -28.3 222.2 -23.85 222.2 -17.5 C 222.2 -11.15 217.95 -6.7 211.9 -6.7 Z M 260.55 0.8 C 266.4 0.8 271.3 -1.4 274.55 -5.2 L 268.55 -10.4 C 266.7 -8.05 263.9 -6.7 260.55 -6.7 C 254.5 -6.7 250.25 -11.15 250.25 -17.5 C 250.25 -23.85 254.5 -28.3 260.55 -28.3 C 263.45 -28.3 265.95 -27.25 267.8 -25.5 L 273.05 -31.35 C 269.85 -34.2 265.55 -35.8 260.55 -35.8 C 249.8 -35.8 242.25 -28.35 242.25 -17.55 C 242.25 -6.75 249.8 0.8 260.55 0.8 Z M 302.65 0.8 C 313.45 0.8 320.95 -6.8 320.95 -17.55 C 320.95 -28.3 313.4 -35.8 302.65 -35.8 C 291.9 -35.8 284.35 -28.3 284.35 -17.55 C 284.35 -6.75 291.85 0.8 302.65 0.8 Z M 302.65 -6.7 C 296.6 -6.7 292.35 -11.15 292.35 -17.5 C 292.35 -23.85 296.6 -28.3 302.65 -28.3 C 308.7 -28.3 312.95 -23.85 312.95 -17.5 C 312.95 -11.15 308.7 -6.7 302.65 -6.7 Z" stroke-linecap="round" />
</g>
</g>
</g>
<g transform="matrix(1.9211538461538462 0 0 1.9211538461538462 671.0427030563211 422.6308981604836)" id="tagline-0b2f4438-b8b2-4c37-8d74-ac297ed180a1-logo"  >
<g style=""  paint-order="stroke"   >
		<g transform="matrix(1 0 0 1 0 0)" id="tagline-0b2f4438-b8b2-4c37-8d74-ac297ed180a1-logo-path-0"  >
<path style="stroke: none; stroke-width: 0; stroke-dasharray: none; stroke-linecap: butt; stroke-dashoffset: 0; stroke-linejoin: miter; stroke-miterlimit: 4; fill: rgb(58,115,223); fill-rule: nonzero; opacity: 1;"  paint-order="stroke"  transform=" translate(-47.035000000000004, 40.97)" d="M 22.82 -29.28 L 22.82 -29.28 Q 32.73 -28.17 38.13 -28.17 L 38.13 -28.17 Q 46.43 -28.17 55.72 -29.28 L 55.72 -29.28 Q 49.6 -48.04 39.36 -63.18 L 39.36 -63.18 Q 29.06 -45.7 22.82 -29.28 Z M 68.75 -6.18 L 68.75 -6.18 L 73.42 -6.29 L 75.15 -6.29 Q 75.98 -6.29 76.82 -6.18 L 76.82 -6.18 Q 66.97 -48.21 46.98 -75.37 L 46.98 -75.37 L 42.64 -68.64 Q 54.11 -52.94 61.12 -31.67 L 61.12 -31.67 Q 67.63 -11.36 68.75 -6.18 Z M 29.28 1.28 L 29.28 1.28 Q 23.55 -0.45 14.81 -0.45 Q 6.07 -0.45 0.33 1.28 L 0.33 1.28 Q -0.95 1.28 -1.78 0.39 Q -2.62 -0.5 -2.62 -1.61 L -2.62 -1.61 Q -2.62 -3.95 -0.22 -4.56 L -0.22 -4.56 Q 3.62 -5.57 9.91 -6.07 L 9.91 -6.07 Q 17.26 -41.8 44.37 -82 L 44.37 -82 Q 45.26 -83.22 46.37 -83.22 L 46.37 -83.22 Q 48.26 -83.22 49.04 -82.22 L 49.04 -82.22 Q 72.2 -52.66 82.89 -5.9 L 82.89 -5.9 Q 88.56 -5.4 94.19 -4.56 L 94.19 -4.56 Q 95.3 -4.4 96 -3.56 Q 96.69 -2.73 96.69 -1.61 Q 96.69 -0.5 95.72 0.39 Q 94.74 1.28 94.19 1.28 L 94.19 1.28 Q 93.41 1.28 90.79 0.78 L 90.79 0.78 Q 79.99 -1.17 63.9 0 L 63.9 0 Q 59.17 0.33 56.78 0.78 Q 54.39 1.22 54.27 1.25 Q 54.16 1.28 53.49 1.28 Q 52.83 1.28 51.96 0.33 Q 51.1 -0.61 51.1 -1.67 Q 51.1 -2.73 51.8 -3.56 Q 52.49 -4.4 54.16 -4.7 Q 55.83 -5.01 58.11 -5.26 Q 60.4 -5.51 62.79 -5.79 L 62.79 -5.79 Q 60.34 -15.09 57.56 -23.71 L 57.56 -23.71 Q 47.71 -22.32 39.52 -22.32 Q 31.34 -22.32 20.76 -23.71 L 20.76 -23.71 Q 17.81 -14.92 15.98 -6.29 L 15.98 -6.29 Q 23.05 -6.07 30 -4.56 L 30 -4.56 Q 31.01 -4.4 31.65 -3.56 Q 32.29 -2.73 32.29 -1.59 Q 32.29 -0.45 31.31 0.42 Q 30.34 1.28 29.28 1.28 Z" stroke-linecap="round" />
</g>
</g>
</g>
</svg>